<svg xmlns="http://www.w3.org/2000/svg" viewBox="0 0 512 512" width="512" height="512">
  <defs>
    <linearGradient id="bg" x1="0%" y1="0%" x2="100%" y2="100%">
      <stop offset="0%" style="stop-color:#1a1a2e"/>
      <stop offset="100%" style="stop-color:#16213e"/>
    </linearGradient>
    <linearGradient id="col1" x1="0%" y1="0%" x2="0%" y2="100%">
      <stop offset="0%" style="stop-color:#0066cc"/>
      <stop offset="100%" style="stop-color:#004499"/>
    </linearGradient>
    <linearGradient id="col2" x1="0%" y1="0%" x2="0%" y2="100%">
      <stop offset="0%" style="stop-color:#00aaFF"/>
      <stop offset="100%" style="stop-color:#0066cc"/>
    </linearGradient>
    <linearGradient id="col3" x1="0%" y1="0%" x2="0%" y2="100%">
      <stop offset="0%" style="stop-color:#66ccff"/>
      <stop offset="100%" style="stop-color:#00aaFF"/>
    </linearGradient>
  </defs>
  <rect width="512" height="512" rx="80" fill="url(#bg)"/>
  <rect x="40" y="100" width="120" height="312" rx="12" fill="url(#col1)"/>
  <rect x="176" y="100" width="120" height="312" rx="12" fill="url(#col2)"/>
  <rect x="312" y="100" width="120" height="312" rx="12" fill="url(#col3)"/>
  <rect x="56" y="130" width="88" height="12" rx="4" fill="rgba(255,255,255,0.3)"/>
  <rect x="56" y="155" width="60" height="8" rx="3" fill="rgba(255,255,255,0.2)"/>
  <rect x="56" y="175" width="88" height="8" rx="3" fill="rgba(255,255,255,0.15)"/>
  <rect x="56" y="195" width="75" height="8" rx="3" fill="rgba(255,255,255,0.15)"/>
  <rect x="192" y="130" width="88" height="12" rx="4" fill="rgba(255,255,255,0.3)"/>
  <rect x="192" y="155" width="55" height="8" rx="3" fill="rgba(255,255,255,0.2)"/>
  <rect x="192" y="175" width="88" height="8" rx="3" fill="rgba(255,255,255,0.15)"/>
  <rect x="192" y="195" width="80" height="8" rx="3" fill="rgba(255,255,255,0.15)"/>
  <rect x="328" y="130" width="88" height="12" rx="4" fill="rgba(255,255,255,0.3)"/>
  <rect x="328" y="155" width="70" height="8" rx="3" fill="rgba(255,255,255,0.2)"/>
  <rect x="328" y="175" width="88" height="8" rx="3" fill="rgba(255,255,255,0.15)"/>
  <rect x="328" y="195" width="65" height="8" rx="3" fill="rgba(255,255,255,0.15)"/>
</svg>